<svg width="24" height="24" viewBox="0 0 24 24" fill="none" xmlns="http://www.w3.org/2000/svg">
<g id="search">
<path id="Vector (Stroke)" fill-rule="evenodd" clip-rule="evenodd" d="M9.17602 4.51494C9.99676 4.17498 10.8764 4 11.7648 4C12.6532 4 13.5328 4.17498 14.3536 4.51494C15.1743 4.8549 15.92 5.35319 16.5482 5.98136C17.1764 6.60953 17.6747 7.35527 18.0146 8.17602C18.3546 8.99676 18.5296 9.87643 18.5296 10.7648C18.5296 11.6532 18.3546 12.5328 18.0146 13.3536C17.7878 13.9011 17.4906 14.4153 17.1313 14.8834L19.7416 17.4937C20.0861 17.8383 20.0861 18.397 19.7416 18.7416C19.397 19.0861 18.8383 19.0861 18.4937 18.7416L15.8835 16.1313C14.7085 17.0331 13.2622 17.5296 11.7648 17.5296C9.97066 17.5296 8.25001 16.8169 6.98136 15.5482C5.71272 14.2796 5 12.5589 5 10.7648C5 8.97066 5.71272 7.25001 6.98136 5.98136C7.60953 5.35319 8.35527 4.8549 9.17602 4.51494ZM11.7648 5.76471C11.1082 5.76471 10.458 5.89404 9.85134 6.14531C9.2447 6.39659 8.6935 6.7649 8.2292 7.2292C7.2915 8.16689 6.76471 9.43869 6.76471 10.7648C6.76471 12.0909 7.2915 13.3627 8.2292 14.3004C9.16689 15.2381 10.4387 15.7649 11.7648 15.7649C13.0909 15.7649 14.3627 15.2381 15.3004 14.3004C15.7647 13.8361 16.133 13.2849 16.3843 12.6782C16.6355 12.0716 16.7649 11.4214 16.7649 10.7648C16.7649 10.1082 16.6355 9.45798 16.3843 8.85134C16.133 8.2447 15.7647 7.6935 15.3004 7.2292C14.8361 6.7649 14.2849 6.39659 13.6782 6.14531C13.0716 5.89404 12.4214 5.76471 11.7648 5.76471Z" fill="#cec6da"/>
</g>
</svg>
