<svg id="ico_calendar_black_16" xmlns="http://www.w3.org/2000/svg" width="16" height="16" viewBox="0 0 16 16">
  <rect id="사각형_64" data-name="사각형 64" width="16" height="16" fill="none"/>
  <g id="사각형_40" data-name="사각형 40" transform="translate(1 3)" fill="none" stroke="#cec6da" stroke-width="1">
    <rect width="14" height="13" rx="1" stroke="none"/>
    <rect x="0.5" y="0.5" width="13" height="12" rx="0.5" fill="none"/>
  </g>
  <g id="사각형_41" data-name="사각형 41" transform="translate(1 5)" fill="none" stroke="#cec6da" stroke-width="1">
    <rect width="14" height="1" stroke="none"/>
    <rect x="0.5" y="0.5" width="13" fill="none"/>
  </g>
  <g id="합치기_2" data-name="합치기 2" transform="translate(4 1)" fill="none">
    <path d="M7,2V.5a.5.5,0,1,1,1,0V2ZM0,2V.5a.5.5,0,1,1,1,0V2Z" stroke="none"/>
    <path d="M 8.000100135803223 1.999800086021423 L 7.000200271606445 1.999800086021423 L 7.000200271606445 0.5004000663757324 C 7.000200271606445 0.2241000384092331 7.224299907684326 4.301071143686386e-08 7.49970006942749 4.301071143686386e-08 C 7.776000022888184 4.301071143686386e-08 8.000100135803223 0.2241000384092331 8.000100135803223 0.5004000663757324 L 8.000100135803223 1.999800086021423 Z M 0.9999000430107117 1.999800086021423 L 6.790160966829717e-08 1.999800086021423 L 6.790160966829717e-08 0.5004000663757324 C 6.790160966829717e-08 0.2241000384092331 0.2241000682115555 4.301071143686386e-08 0.5004000663757324 4.301071143686386e-08 C 0.7758000493049622 4.301071143686386e-08 0.9999000430107117 0.2241000384092331 0.9999000430107117 0.5004000663757324 L 0.9999000430107117 1.999800086021423 Z" stroke="none" fill="#cec6da"/>
  </g>
  <g id="합치기_1" data-name="합치기 1" transform="translate(4 8)" fill="none">
    <path d="M6,5V3H8V5ZM3,5V3H5V5ZM0,5V3H2V5ZM6,2V0H8V2ZM3,2V0H5V2ZM0,2V0H2V2Z" stroke="none"/>
    <path d="M 8.000100135803223 5.000400066375732 L 6.00029993057251 5.000400066375732 L 6.00029993057251 2.99970006942749 L 8.000100135803223 2.99970006942749 L 8.000100135803223 5.000400066375732 Z M 5.000400066375732 5.000400066375732 L 2.99970006942749 5.000400066375732 L 2.99970006942749 2.99970006942749 L 5.000400066375732 2.99970006942749 L 5.000400066375732 5.000400066375732 Z M 1.999800086021423 5.000400066375732 L 6.790160966829717e-08 5.000400066375732 L 6.790160966829717e-08 2.99970006942749 L 1.999800086021423 2.99970006942749 L 1.999800086021423 5.000400066375732 Z M 8.000100135803223 1.999800086021423 L 6.00029993057251 1.999800086021423 L 6.00029993057251 3.318786667705353e-08 L 8.000100135803223 3.318786667705353e-08 L 8.000100135803223 1.999800086021423 Z M 5.000400066375732 1.999800086021423 L 2.99970006942749 1.999800086021423 L 2.99970006942749 3.318786667705353e-08 L 5.000400066375732 3.318786667705353e-08 L 5.000400066375732 1.999800086021423 Z M 1.999800086021423 1.999800086021423 L 6.790160966829717e-08 1.999800086021423 L 6.790160966829717e-08 3.318786667705353e-08 L 1.999800086021423 3.318786667705353e-08 L 1.999800086021423 1.999800086021423 Z" stroke="none" fill="#cec6da"/>
  </g>
</svg>
