<?xml version="1.0" encoding="UTF-8"?>
<svg id="_레이어_2" data-name="레이어 2" xmlns="http://www.w3.org/2000/svg" viewBox="0 0 186.1 183.23">
  <defs>
    <style>
      .cls-1 {
        fill: #fff;
      }
    </style>
  </defs>
  <g id="_레이어_1-2" data-name="레이어 1">
    <path class="cls-1" d="M186.1,134.54l-9.12,15.14c-26.44-6.32-46.34-20.74-55.36-41.68-8.81,20.94-28.41,35.35-54.74,41.68l-9.33-15.14c32.97-7.05,52.46-27.16,52.46-53.29v-4.56h-46.86v-16.17h48.94v-26.96h19.91v26.96h48.73v16.17h-47.28v4.56c-.21,26.13,19.7,46.24,52.67,53.29Z"/>
    <path class="cls-1" d="M140.48,83.69c.98,20.42,16.7,36.17,42.75,42.97v-42.97h-42.75Z"/>
    <path class="cls-1" d="M175.35,156.48c-23.76-5.68-42.37-17.56-53.68-33.98-11.14,16.45-29.57,28.32-53.16,33.98l-4.93,1.18-2.66-4.32-9.33-15.14-5.21-8.44,9.7-2.07c28.33-6.06,45.65-22.41,46.86-44.01h-46.79v-30.17h48.94v-26.96h33.91v26.96h44.25v-13.21c0-22.26-18.04-40.3-40.3-40.3H40.3C18.04,0,0,18.04,0,40.3v102.62c0,22.26,18.04,40.3,40.3,40.3h102.62c17.25,0,31.96-10.84,37.71-26.07l-.31.52-4.98-1.19Z"/>
  </g>
</svg>